<svg xmlns="http://www.w3.org/2000/svg" width="100" height="100" fill="none"><rect width="100" height="100" fill="url(#a)" rx="12"/><path fill="url(#b)" d="M61.56 79.16a13.14 13.14 0 0 0 11.05.32l4.7 8.29-2.7 4.72-5.5.01-7.55-13.34ZM89 67.14l-5.33 9.57-6.94-.02.21-.22a13.06 13.06 0 0 0 3.6-9.33H89ZM58.16 76.7l-10.85-.03-1.3-2.26h9a3 3 0 0 0 .77-.1l2.38 2.39ZM30.51 49.04a29.51 29.51 0 0 0-3.76-.25 3.16 3.16 0 0 0-3.13 3l-.15.23a3.16 3.16 0 0 0 .71 4.09c.63.52 1.46 1.1 2.34 1.67l-3.7 6.5c-2.07 1.01-4.22 2.68-4.91 5.4v.01a3.58 3.58 0 0 0 .3 2.68l-1.75 3.08-5.5-9.46 6.35-11.1-12.62-.02L2 50.14l2.75-4.84 17.96.06 1.5-2.62 6.3 6.3Zm44.2-9.6L69.28 49l-2.88-5.05c.53-.8.75-1.81.53-2.83l-.36-1.68a3.75 3.75 0 0 0-1.27-2.1c.95.49 2.1.48 3.03-.03 1.27.7 2.94.46 3.94-.7.26.01.52 0 .78-.06l1.64 2.9ZM62.83 18.62l6.34-11.06h5.39l2.75 4.83-6.57 11.46H54.97L45.72 7.6l10.83-.1 6.3 11.12Z"/><path fill="url(#c)" d="m54.86 92.4-10.7.1-6.22-11.11-6.27 11.05h-5.31l-2.73-4.82 7.5-13.2h13.6L54.86 92.4Zm-27.4-34.03.78.46c1.45.85 3.1 1.7 4.33 2.14l2.1.74c-1.33.1-2.72.23-4.1.43-1.04.15-2.1.34-3.16.58l-1.19-2.13 1.25-2.22Zm61.7-24.3-6.29 11.08 12.47.03L98 49.9l-2.71 4.83-17.75-.06-1.57 2.77-6.87-6.88L83.7 24.62l5.44 9.45ZM21.43 23.3a13.08 13.08 0 0 0-2.9 9.54H12l5.26-9.56 4.18.02Zm31.75.02.3.54H43.27a3 3 0 0 0-.78.1l-.66-.67 11.37.03Zm-14.06-2.44a13.12 13.12 0 0 0-11.7-1.72l-3.87-6.92 2.66-4.72 5.43-.01 7.48 13.37Z"/><path fill="#fff" d="M74.23 60.65a9.6 9.6 0 0 1-13.58 13.58L24.79 38.37A9.6 9.6 0 0 1 38.37 24.8l35.86 35.86Zm-41.56-30.7a2.3 2.3 0 1 0-3.26 3.27 2.3 2.3 0 0 0 3.26-3.27Zm36.4 36.4a2.3 2.3 0 1 0-3.26 3.26 2.3 2.3 0 0 0 3.26-3.25ZM42.98 64.5h5.1L55 71.4H21.7c-.55 0-1.02-.45-.88-.99C22.4 64.15 39 64.5 42.98 64.5ZM26.8 51.79c2.2-.04 6.65.6 8.56 1.27l2 .71 8.8 8.78-12.59-4.41a34.02 34.02 0 0 1-7.47-4.35c-.16-.13-.03-.34.16-.27l6.68 2.34a.2.2 0 0 0 .26-.12l.36-1.04a.2.2 0 0 0-.12-.25l-6.68-2.35c-.2-.07-.16-.31.04-.31ZM56.48 38.1a.75.75 0 0 1 1.22.42l.4 1.89 1.28-1.46.07-.07a.75.75 0 0 1 1.22.4l.4 1.9 1.28-1.46a.75.75 0 0 1 1.3.34l.36 1.68a.75.75 0 0 1-1.47.31l-.05-.2-1.27 1.45a.75.75 0 0 1-1.3-.34l-.4-1.9-.95 1.1-3.05-3.05.06.01.82-.94.08-.08Zm20.08-11.25c.55 0 .99.45.81.97-.6 1.77-2.56 4.16-4.85 5.76a.2.2 0 0 1-.3-.07l-.36-.74-.27-.54a.2.2 0 0 0-.36 0l-.27.54-.9 1.82a.2.2 0 0 1-.37 0l-.9-1.82-.27-.54a.2.2 0 0 0-.36 0l-.27.54-.91 1.82a.2.2 0 0 1-.36 0l-.91-1.82-.27-.54a.2.2 0 0 0-.36 0l-.26.54-.91 1.82a.2.2 0 0 1-.36 0l-.91-1.82-.27-.54a.2.2 0 0 0-.36 0l-.27.54-.9 1.82a.2.2 0 0 1-.37 0l-.9-1.82-.27-.54a.2.2 0 0 0-.36 0l-.27.54-.91 1.82a.2.2 0 0 1-.36 0l-.91-1.82-.27-.54a.2.2 0 0 0-.36 0l-.26.54-.91 1.82a.2.2 0 0 1-.36 0l-.91-1.82-.27-.54a.2.2 0 0 0-.36 0l-.27.54-.9 1.82a.2.2 0 0 1-.37 0l-.9-1.82-.27-.54a.2.2 0 0 0-.36 0l-.27.54-.1.18-6.1-6.1h33.3Z"/><defs><linearGradient id="b" x1="76.68" x2="59.06" y1="47.7" y2="17.64" gradientUnits="userSpaceOnUse"><stop offset=".24" stop-color="#7EB1DD"/></linearGradient><linearGradient id="c" x1="63.41" x2="81.33" y1="70.75" y2="41.09" gradientUnits="userSpaceOnUse"><stop offset="1" stop-color="#5277C3"/></linearGradient><radialGradient id="a" cx="0" cy="0" r="1" gradientTransform="matrix(0 50 -50 0 50 50)" gradientUnits="userSpaceOnUse"><stop offset=".54" stop-color="#091A3D"/><stop offset="1" stop-color="#000819"/></radialGradient></defs></svg>